<?xml version="1.0" encoding="UTF-8" standalone="no"?>
<!-- Created with Inkscape (http://www.inkscape.org/) -->

<svg
   width="16"
   height="16"
   viewBox="0 0 16 16"
   version="1.1"
   id="svg1"
   inkscape:version="1.3.2 (091e20e, 2023-11-25, custom)"
   sodipodi:docname="T-BongTuyet.svg"
   xmlns:inkscape="http://www.inkscape.org/namespaces/inkscape"
   xmlns:sodipodi="http://sodipodi.sourceforge.net/DTD/sodipodi-0.dtd"
   xmlns="http://www.w3.org/2000/svg"
   xmlns:svg="http://www.w3.org/2000/svg">
  <sodipodi:namedview
     id="namedview1"
     pagecolor="#ffffff"
     bordercolor="#000000"
     borderopacity="0.25"
     inkscape:showpageshadow="2"
     inkscape:pageopacity="0.0"
     inkscape:pagecheckerboard="0"
     inkscape:deskcolor="#d1d1d1"
     inkscape:document-units="px"
     inkscape:zoom="26.116897"
     inkscape:cx="5.0924886"
     inkscape:cy="7.8684692"
     inkscape:window-width="1366"
     inkscape:window-height="705"
     inkscape:window-x="-8"
     inkscape:window-y="-8"
     inkscape:window-maximized="1"
     inkscape:current-layer="layer1" />
  <defs
     id="defs1" />
  <g
     inkscape:label="Layer 1"
     inkscape:groupmode="layer"
     id="layer1">
    <path
       id="rect1"
       style="fill:#b3b3b3;stroke-width:1.62536"
       d="m 6.8796872,0.0494315 c -0.00695,-1.6855e-4 -0.014046,0.0018729 -0.021081,0.0027668 -0.018745,0.0023695 -0.039778,0.0064274 -0.057218,0.01662762 -0.069761,0.0408376 -0.091472,0.13156667 -0.051194,0.20229841 L 7.8162532,2.1444675 V 4.0150353 L 7.0001459,2.5823187 C 6.9699399,2.5292697 6.9148409,2.5003527 6.858607,2.5074967 6.839862,2.5098667 6.818829,2.5166867 6.801389,2.5268957 6.731628,2.5677337 6.709917,2.6556913 6.750195,2.7264229 l 1.0660578,1.873338 V 6.409362 L 7.0001459,4.9766456 C 6.9699399,4.9235966 6.9148409,4.8974506 6.858607,4.9045936 6.839862,4.9069636 6.818829,4.9137836 6.801389,4.9239926 6.731628,4.9648306 6.709917,5.0527883 6.750195,5.1235199 L 7.8162529,6.9968587 V 7.6813479 L 7.2229943,7.36543 5.9973283,5.5779984 C 5.9509036,5.5105319 5.853814,5.4846245 5.7805029,5.5198028 c -0.018349,0.00878 -0.033535,0.022289 -0.045172,0.036026 -0.034834,0.041247 -0.037835,0.099046 -0.00301,0.1496455 L 6.6718963,7.0716815 4.9674076,6.1654954 3.7387301,4.380835 C 3.6923051,4.313368 3.5982271,4.28469 3.524916,4.319868 3.506567,4.328648 3.491381,4.344928 3.479744,4.358666 3.44491,4.399913 3.44191,4.454943 3.476734,4.5055403 L 4.4163095,5.8745181 2.6576142,4.9378486 1.4289367,3.1531885 C 1.3825121,3.085722 1.2854226,3.0570432 1.2121113,3.0922214 c -0.018349,0.00878 -0.033526,0.022302 -0.045171,0.036026 -0.034834,0.041245 -0.034823,0.099048 0,0.1496454 L 2.106516,4.6468714 0.73328834,3.918043 C 0.64904824,3.873286 0.55071568,3.887102 0.51044004,3.951297 0.47016494,4.015492 0.50450404,4.1032968 0.58873784,4.148053 L 1.9529316,4.8713395 0.20929375,4.8048305 c -0.0867164,-0.00328 -0.1571341,0.054236 -0.15358411,0.1302471 0.0035618,0.076013 0.07893449,0.1408333 0.16563058,0.1441032 l 2.28570098,0.085907 1.7556836,0.9338984 -1.743638,-0.066509 c -0.086716,-0.00328 -0.1541222,0.054234 -0.1505728,0.1302472 0.00355,0.076014 0.075924,0.1408317 0.1626192,0.144103 l 2.2857014,0.085908 1.7014773,0.903415 -1.7436378,-0.063738 c -0.086702,-0.00327 -0.1541237,0.054234 -0.1505728,0.1302472 0.00355,0.076014 0.075924,0.1408318 0.1626191,0.1441028 L 7.0724211,7.5926684 7.719886,7.9362987 7.0814555,8.2743866 4.7867197,8.3602943 c -0.086705,0.00327 -0.1590695,0.068091 -0.1626191,0.1441029 -9.075e-4,0.019014 0.00494,0.036509 0.012042,0.052653 0.0214,0.048383 0.073498,0.080045 0.1385278,0.077593 L 6.5303577,8.5681356 4.8258686,9.4743219 2.5311329,9.5602295 c -0.086705,0.00327 -0.1590696,0.06532 -0.1626193,0.1413312 -9.074e-4,0.019014 0.00494,0.039281 0.012042,0.055425 0.0214,0.048383 0.0735,0.077274 0.1385277,0.074822 l 1.7556843,-0.066509 -1.7586953,0.9366688 -2.29473575,0.08591 c -0.0867056,0.0032 -0.1620809,0.06532 -0.16563059,0.141332 -9.0739e-4,0.01901 0.0049494,0.03928 0.01204201,0.05543 0.0213996,0.04838 0.076509,0.07727 0.14153901,0.07482 l 1.75568362,-0.06651 -1.37322775,0.728829 c -0.0842401,0.04475 -0.11857441,0.132564 -0.0782978,0.196756 0.0402768,0.06419 0.13860791,0.08077 0.22284829,0.03602 L 2.0974819,11.231271 1.1669394,12.586393 c -0.04644,0.06747 -0.028139,0.150494 0.045171,0.185671 0.073312,0.03517 0.1734107,0.0092 0.2198368,-0.05819 l 1.2226557,-1.779123 1.7556838,-0.931127 -0.9335541,1.355122 c -0.046438,0.06747 -0.025126,0.150494 0.048184,0.185671 0.073312,0.03517 0.1703992,0.0092 0.2168254,-0.0582 L 4.964396,9.7071037 6.6658735,8.8036888 5.7323195,10.161583 c -0.046426,0.06747 -0.025126,0.150494 0.048184,0.185671 0.073313,0.03518 0.1703994,0.0092 0.2168254,-0.05819 l 1.222654,-1.7791237 0.59627,-0.3159182 V 8.8175448 L 6.7501944,10.688113 c -0.040277,0.07073 -0.018565,0.161464 0.051194,0.202298 0.01744,0.01023 0.038473,0.01422 0.057218,0.01663 0.056234,0.0071 0.1113324,-0.019 0.141539,-0.07205 L 7.8162529,9.4022704 V 11.214643 L 6.7501944,13.08521 c -0.040277,0.07073 -0.018565,0.161463 0.051194,0.202298 0.01744,0.01022 0.038473,0.01422 0.057218,0.01663 0.056234,0.0071 0.1113324,-0.019 0.141539,-0.07205 l 0.8161065,-1.432714 v 1.870567 l -1.0660583,1.870567 c -0.040277,0.07073 -0.018566,0.161464 0.051194,0.2023 0.01744,0.01022 0.038473,0.01698 0.057218,0.01939 0.056234,0.0071 0.1113321,-0.02177 0.1415389,-0.07483 l 0.8161072,-1.432715 v 1.457656 c 0,0.08951 0.063999,0.160732 0.1445503,0.160732 0.080553,0 0.1445502,-0.07122 0.1445502,-0.160732 v -1.446572 l 0.8100841,1.421631 c 0.040277,0.07074 0.1289959,0.09626 0.1987566,0.05542 0.069762,-0.04084 0.094483,-0.131571 0.054206,-0.202299 l -1.0630455,-1.86501 v -1.865025 l 0.810084,1.421631 c 0.040277,0.07074 0.128996,0.09626 0.1987566,0.05542 0.069763,-0.04084 0.094483,-0.131571 0.054206,-0.202297 L 8.1053534,11.220185 V 9.4133552 l 0.810084,1.4216318 c 0.040277,0.07073 0.128996,0.09626 0.1987566,0.05543 0.069763,-0.04084 0.094483,-0.131568 0.054206,-0.202299 L 8.1053537,8.8230902 v -0.681721 l 0.6926369,0.3657999 1.2256664,1.7818889 c 0.04642,0.06747 0.140501,0.0906 0.213813,0.05543 0.07331,-0.03518 0.09762,-0.11544 0.0512,-0.1829 L 9.3551112,8.8036888 11.053578,9.7071037 12.279242,11.486222 c 0.04642,0.06747 0.143517,0.09337 0.216827,0.0582 0.07331,-0.03519 0.0916,-0.118205 0.04517,-0.185672 l -0.933552,-1.357893 1.755682,0.933898 1.225666,1.779119 c 0.04642,0.06747 0.146524,0.09337 0.219837,0.05819 0.0733,-0.03517 0.0916,-0.11822 0.04517,-0.185671 l -0.930542,-1.355122 1.213619,0.645692 c 0.08424,0.04477 0.182571,0.02817 0.222849,-0.03603 0.04027,-0.06419 0.0059,-0.149223 -0.07829,-0.193984 l -1.225666,-0.651235 1.755683,0.06374 c 0.05689,0.0021 0.10708,-0.02002 0.132509,-0.05819 0.0035,-0.0055 0.0032,-0.01061 0.006,-0.01663 0.0071,-0.01609 0.01598,-0.03643 0.01511,-0.05543 -0.0035,-0.07602 -0.07893,-0.138059 -0.16563,-0.141332 l -2.294737,-0.08591 -1.761706,-0.9366691 1.755684,0.066509 c 0.06501,0.00244 0.120143,-0.026432 0.141543,-0.074822 0.0071,-0.01609 0.01296,-0.036416 0.01202,-0.055425 -0.0035,-0.076016 -0.0759,-0.1380636 -0.162618,-0.1413312 L 11.192105,9.4743215 9.4906271,8.5681352 11.246311,8.6346441 c 0.06501,0.00245 0.117125,-0.02921 0.138527,-0.077593 0.0071,-0.016114 0.01002,-0.036423 0.0091,-0.055425 -0.0035,-0.076014 -0.0729,-0.1380636 -0.159608,-0.1413313 L 8.9365176,8.2743874 8.2980871,7.9362995 8.945552,7.5926692 11.234265,7.5067616 c 0.0867,-0.00327 0.156056,-0.06809 0.159609,-0.1441028 0.0035,-0.076013 -0.06085,-0.1335162 -0.147564,-0.1302472 L 9.5026726,7.2961506 11.20114,6.3955067 13.489853,6.3068277 c 0.0867,-0.00327 0.156055,-0.065319 0.159606,-0.1413313 0.0035,-0.076013 -0.06388,-0.1335148 -0.150579,-0.1302471 l -1.743637,0.063738 1.755682,-0.9311271 2.288714,-0.088679 c 0.0867,-0.00327 0.162079,-0.068088 0.16563,-0.1441031 0.0035,-0.076013 -0.06688,-0.1335148 -0.153586,-0.1302471 l -1.740626,0.066509 1.21362,-0.6456924 c 0.08424,-0.044757 0.118569,-0.1325598 0.07829,-0.1967559 -0.04028,-0.064195 -0.138599,-0.080783 -0.222849,-0.036026 L 13.914455,4.6441002 14.854033,3.277893 c 0.03047,-0.044272 0.03526,-0.093673 0.01202,-0.1330182 -0.0033,-0.00562 -0.01081,-0.0087 -0.01511,-0.013862 -0.01157,-0.013748 -0.02384,-0.030002 -0.04215,-0.038798 -0.07331,-0.035176 -0.170397,-0.0065 -0.216826,0.060967 l -1.231605,1.7846663 -1.758696,0.9366695 0.939577,-1.3662072 c 0.03481,-0.050597 0.03485,-0.1084025 0,-0.1496456 -0.01156,-0.013748 -0.02986,-0.02723 -0.04819,-0.036026 -0.07331,-0.035175 -0.164376,-0.00926 -0.210801,0.058196 L 11.050565,6.1654954 9.3490883,7.0716815 10.288665,5.7054742 c 0.03482,-0.050597 0.03182,-0.1084038 -0.003,-0.1496455 -0.0116,-0.013749 -0.02986,-0.02723 -0.04818,-0.036026 -0.07332,-0.035176 -0.167391,-0.00926 -0.213818,0.058196 L 8.7949789,7.36543 8.1053534,7.7312298 V 6.9913163 L 9.1684004,5.1235199 C 9.2086768,5.0527881 9.1839553,4.9648297 9.114194,4.9239926 9.044434,4.883156 8.9557136,4.9059138 8.9154374,4.9766456 L 8.1053534,6.398277 V 4.5942184 L 9.1684004,2.7264217 C 9.2086768,2.6556903 9.1839553,2.5677318 9.114194,2.5268945 9.044434,2.4860582 8.9557136,2.5115871 8.9154374,2.5823187 L 8.1053534,4.0039502 V 2.1389249 L 9.1684004,0.27112842 C 9.2086771,0.20039668 9.1839547,0.10966723 9.1141943,0.06883002 9.044434,0.02799337 8.9557139,0.05352236 8.9154379,0.12425411 L 8.1053534,1.5458857 V 0.25450108 c 0,-0.0895116 -0.063996,-0.16073019 -0.1445503,-0.16073019 -0.080552,0 -0.1445502,0.0712183 -0.1445502,0.16073019 V 1.5569706 L 7.0001459,0.12425411 C 6.9737152,0.07783751 6.9283179,0.050611 6.8796872,0.0494315 Z" />
  </g>
</svg>
